<?xml version="1.0" encoding="UTF-8" standalone="no"?>
<!DOCTYPE svg PUBLIC "-//W3C//DTD SVG 1.1//EN"
"http://www.w3.org/Graphics/SVG/1.1/DTD/svg11.dtd">
<svg viewBox="0 0 935 1210" version="1.1" xmlns="http://www.w3.org/2000/svg" xmlns:xlink="http://www.w3.org/1999/xlink">
<defs>
<style type="text/css"><![CDATA[
.g0{
fill: #FFFFFF;
}
.g1{
fill: none;
stroke: #FFFFFF;
stroke-width: 0.763;
stroke-linecap: butt;
stroke-linejoin: round;
}
]]></style>
</defs>
<path fill-rule="evenodd" d="M110.5,293.3H701.2V253.8H110.5v39.5Z" class="g0"/>
<path fill-rule="evenodd" d="M110.5,273.1H453.7V253.8H110.5v19.3Z" class="g0"/>
<path fill-rule="evenodd" d="M453.8,273.1H701.2V253.8H453.8v19.3Z" class="g0"/>
<path fill-rule="evenodd" d="M110.5,292.5H453.7V273.2H110.5v19.3Z" class="g0"/>
<path fill-rule="evenodd" d="M453.8,292.5H701.2V273.2H453.8v19.3Z" class="g0"/>
<path fill-rule="evenodd" d="M110.5,273.1H453.7V253.8H110.5v19.3Z" class="g0"/>
<path fill-rule="evenodd" d="M453.8,273.1H701.2V253.8H453.8v19.3Z" class="g0"/>
<path fill-rule="evenodd" d="M110.5,292.5H453.7V273.2H110.5v19.3Z" class="g0"/>
<path fill-rule="evenodd" d="M453.8,292.5H701.2V273.2H453.8v19.3Z" class="g0"/>
<path d="M110.1,254.1H701.6M110.1,273.5H701.6M110.1,293H701.6M110.5,253.8v39.5M453.8,253.8v39.5M701.3,253.8v39.5" class="g1"/>
</svg>