<?xml version="1.0" encoding="UTF-8" standalone="no"?>
<!DOCTYPE svg PUBLIC "-//W3C//DTD SVG 1.1//EN"
"http://www.w3.org/Graphics/SVG/1.1/DTD/svg11.dtd">
<svg viewBox="0 0 935 1210" version="1.1" xmlns="http://www.w3.org/2000/svg" xmlns:xlink="http://www.w3.org/1999/xlink">
<defs>
<clipPath id="c0_1"><path d="M149,206.3V187.2h19.2v19.1Z"/></clipPath>
<clipPath id="c1_1"><path d="M275.6,206.3V188.1h18.2v18.2Z"/></clipPath>
<clipPath id="c2_1"><path d="M428.7,206.3V188.1H447v18.2Z"/></clipPath>
<clipPath id="c3_1"><path d="M648.2,206.3V188.1h18.2v18.2Z"/></clipPath>
<style type="text/css"><![CDATA[
.g0_1{
fill: none;
stroke: #000000;
stroke-width: 0.763;
stroke-linecap: butt;
stroke-linejoin: round;
}
]]></style>
</defs>
<image clip-path="url(#c0_1)" preserveAspectRatio="none" x="149" y="187" width="19" height="19" xlink:href="img/1.png"/>
<image clip-path="url(#c1_1)" preserveAspectRatio="none" x="276" y="188" width="18" height="18" xlink:href="img/2.png"/>
<image clip-path="url(#c2_1)" preserveAspectRatio="none" x="429" y="188" width="18" height="18" xlink:href="img/3.png"/>
<image clip-path="url(#c3_1)" preserveAspectRatio="none" x="648" y="188" width="18" height="18" xlink:href="img/4.png"/>
<path d="M103.1,185.2H825.7m-.4,-.3v27.8m.4,-.3H103.1m.4,.3V184.9m-.4,.3H825.7m-.4,-.3v27.8m.4,-.3H103.1m.4,.3V184.9" class="g0_1"/>
</svg>